<?xml version="1.0" standalone="no"?>
<!DOCTYPE svg PUBLIC "-//W3C//DTD SVG 20010904//EN"
 "http://www.w3.org/TR/2001/REC-SVG-20010904/DTD/svg10.dtd">
<svg version="1.0" xmlns="http://www.w3.org/2000/svg"
 width="250.000000pt" height="150.000000pt" viewBox="0 0 250.000000 150.000000"
 preserveAspectRatio="xMidYMid meet">

<g transform="translate(0.000000,150.000000) scale(0.100000,-0.100000)"
fill="#000000" stroke="none">
<path d="M116 819 c-22 -17 -26 -28 -26 -69 0 -41 4 -52 26 -69 35 -28 97 -28
124 -1 27 27 26 50 -4 50 -13 0 -26 -7 -30 -15 -7 -18 -37 -20 -54 -3 -15 15
-15 61 0 76 17 17 45 15 52 -3 7 -18 56 -20 56 -2 -1 52 -94 75 -144 36z"/>
<path d="M306 828 c4 -7 20 -32 36 -55 18 -26 28 -55 28 -77 0 -32 3 -36 25
-36 22 0 25 5 25 33 0 17 9 46 21 62 11 17 27 42 35 58 14 26 14 27 -14 27
-20 0 -32 -8 -46 -31 l-18 -31 -19 31 c-14 24 -26 31 -49 31 -22 0 -29 -4 -24
-12z"/>
<path d="M540 750 l0 -90 65 0 c91 0 123 34 83 87 -5 7 -5 14 2 18 17 11 11
54 -9 65 -11 5 -47 10 -80 10 l-61 0 0 -90z m101 35 c0 -5 -12 -11 -26 -13
-18 -2 -25 1 -25 13 0 12 7 15 25 13 14 -2 26 -7 26 -13z m9 -70 c0 -10 -10
-15 -30 -15 -20 0 -30 5 -30 15 0 10 10 15 30 15 20 0 30 -5 30 -15z"/>
<path d="M760 750 l0 -90 75 0 c68 0 75 2 75 20 0 17 -7 20 -50 20 -38 0 -50
4 -50 15 0 11 11 15 40 15 33 0 40 3 40 20 0 17 -7 20 -40 20 -29 0 -40 4 -40
15 0 11 12 15 50 15 43 0 50 3 50 20 0 18 -7 20 -75 20 l-75 0 0 -90z"/>
<path d="M960 750 l0 -90 30 0 c28 0 30 3 30 35 0 19 5 35 10 35 6 0 18 -16
27 -35 13 -28 23 -35 45 -35 33 0 33 1 12 41 -14 28 -14 32 0 48 45 49 2 91
-91 91 l-63 0 0 -90z m108 33 c-2 -10 -13 -19 -26 -21 -17 -3 -22 2 -22 17 0
16 6 21 26 21 19 0 25 -5 22 -17z"/>
<path d="M1364 793 c-9 -27 -23 -63 -31 -82 -7 -18 -13 -37 -13 -42 0 -15 58
-10 64 6 3 8 17 15 31 15 14 0 28 -7 31 -15 8 -19 68 -21 62 -2 -64 176 -58
167 -94 167 -30 0 -34 -4 -50 -47z m65 -55 c1 -5 -6 -8 -14 -8 -16 0 -19 9 -8
36 6 16 7 16 14 -2 4 -10 8 -22 8 -26z"/>
<path d="M1567 822 c-36 -39 -12 -80 56 -96 34 -8 36 -26 2 -26 -14 0 -25 5
-25 10 0 6 -13 10 -30 10 -24 0 -28 -3 -23 -17 10 -30 35 -43 83 -43 100 0
110 94 13 115 -18 3 -33 11 -33 16 0 12 37 12 45 -1 8 -13 42 -13 50 0 3 5 -3
18 -15 30 -27 27 -100 28 -123 2z"/>
<path d="M1760 750 l0 -90 30 0 c25 0 30 4 30 24 0 37 28 41 48 6 13 -24 24
-30 50 -30 31 0 32 1 21 23 -7 12 -20 34 -30 49 -24 33 -25 31 12 73 l31 35
-35 0 c-29 0 -41 -7 -66 -37 l-31 -38 0 38 c0 34 -2 37 -30 37 l-30 0 0 -90z"/>
<path d="M1990 750 c0 -89 0 -90 25 -90 24 0 25 3 26 58 l1 57 16 -57 c13 -48
20 -58 38 -58 17 0 24 10 36 53 l16 52 1 -52 c1 -50 3 -53 26 -53 25 0 25 1
25 91 l0 90 -37 -3 c-34 -3 -38 -6 -48 -45 -10 -43 -25 -67 -25 -42 0 8 -5 31
-11 52 -9 35 -12 37 -49 37 l-40 0 0 -90z"/>
<path d="M2260 750 l0 -90 75 0 c68 0 75 2 75 20 0 17 -7 20 -50 20 -38 0 -50
4 -50 15 0 11 12 15 45 15 38 0 45 3 45 20 0 17 -7 20 -45 20 -33 0 -45 4 -45
15 0 11 12 15 50 15 43 0 50 3 50 20 0 18 -7 20 -75 20 l-75 0 0 -90z"/>
<path d="M1187 633 c18 -2 50 -2 70 0 21 2 7 4 -32 4 -38 0 -55 -2 -38 -4z"/>
</g>
</svg>
